<svg width="18" height="18" viewBox="0 0 18 18" fill="none" xmlns="http://www.w3.org/2000/svg">
<path d="M9.9375 16.1625C9.4125 16.605 8.565 16.605 8.055 16.1625L6.87 15.15C6.645 14.9625 6.2175 14.805 5.9175 14.805H4.6425C3.8475 14.805 3.19499 14.1525 3.19499 13.3575V12.0825C3.19499 11.7825 3.03749 11.3625 2.84999 11.1375L1.8375 9.95256C1.395 9.42756 1.395 8.58006 1.8375 8.07006L2.84999 6.88506C3.03749 6.66006 3.19499 6.24006 3.19499 5.94006V4.66506C3.19499 3.87007 3.8475 3.21757 4.6425 3.21757H5.9175C6.2175 3.21757 6.6375 3.06007 6.8625 2.87257L8.0475 1.86007C8.5725 1.41757 9.42 1.41757 9.93 1.86007L11.115 2.87257C11.34 3.06007 11.7675 3.21757 12.06 3.21757H13.3725C14.1675 3.21757 14.82 3.87007 14.82 4.66506V5.94756C14.82 6.24006 14.97 6.66756 15.1575 6.88506L16.17 8.07756C16.605 8.59506 16.605 9.43506 16.17 9.95256L15.1575 11.145C14.97 11.37 14.82 11.79 14.82 12.0825V13.35C14.82 14.145 14.1675 14.7975 13.3725 14.7975H12.075C11.775 14.7975 11.355 14.955 11.13 15.1425L9.9375 16.1625Z" stroke="#A72E83" stroke-linecap="round" stroke-linejoin="round"/>
<path d="M9 11.9026V8.28009" stroke="#A72E83" stroke-width="1.5" stroke-linecap="round" stroke-linejoin="round"/>
<path d="M9.00412 6H8.99798" stroke="#A72E83" stroke-width="2" stroke-linecap="round" stroke-linejoin="round"/>
</svg>
