<svg width="12" height="12" viewBox="0 0 12 12" fill="none" xmlns="http://www.w3.org/2000/svg">
<g clip-path="url(#clip0_26_2967)">
<path fill-rule="evenodd" clip-rule="evenodd" d="M2.11091 9.88909C1.64881 9.42698 1.51623 8.72209 1.66115 7.79721C0.904688 7.24569 0.5 6.65352 0.5 6C0.5 5.34648 0.904688 4.75431 1.66115 4.20279C1.51623 3.27791 1.64881 2.57302 2.11091 2.11091C2.57302 1.64881 3.27791 1.51623 4.20279 1.66115C4.75431 0.904688 5.34648 0.5 6 0.5C6.65352 0.5 7.24569 0.904688 7.79721 1.66115C8.72209 1.51623 9.42698 1.64881 9.88909 2.11091C10.3512 2.57302 10.4838 3.27791 10.3388 4.20279C11.0953 4.75431 11.5 5.34648 11.5 6C11.5 6.65352 11.0953 7.24569 10.3388 7.79721C10.4838 8.72209 10.3512 9.42698 9.88909 9.88909C9.42698 10.3512 8.72209 10.4838 7.79721 10.3388C7.24569 11.0953 6.65352 11.5 6 11.5C5.34648 11.5 4.75431 11.0953 4.20279 10.3388C3.27791 10.4838 2.57302 10.3512 2.11091 9.88909ZM4.32629 9.29899C4.52926 9.25553 4.73797 9.34198 4.85075 9.51623C5.29113 10.1966 5.68382 10.5 6 10.5C6.31618 10.5 6.70887 10.1966 7.14925 9.51623C7.26203 9.34198 7.47074 9.25553 7.67371 9.29899C8.46623 9.46872 8.9584 9.40556 9.18198 9.18198C9.40556 8.9584 9.46872 8.46623 9.29899 7.67371C9.25553 7.47074 9.34198 7.26203 9.51623 7.14925C10.1966 6.70887 10.5 6.31618 10.5 6C10.5 5.68382 10.1966 5.29113 9.51623 4.85075C9.34198 4.73797 9.25553 4.52926 9.29899 4.32629C9.46872 3.53377 9.40556 3.04159 9.18198 2.81802C8.9584 2.59444 8.46623 2.53128 7.67371 2.70101C7.47074 2.74447 7.26203 2.65802 7.14925 2.48377C6.70887 1.80336 6.31618 1.5 6 1.5C5.68382 1.5 5.29113 1.80336 4.85075 2.48377C4.73797 2.65802 4.52926 2.74447 4.32629 2.70101C3.53377 2.53128 3.04159 2.59444 2.81802 2.81802C2.59444 3.04159 2.53128 3.53377 2.70101 4.32629C2.74447 4.52926 2.65802 4.73797 2.48377 4.85075C1.80336 5.29113 1.5 5.68382 1.5 6C1.5 6.31618 1.80336 6.70887 2.48377 7.14925C2.65802 7.26203 2.74447 7.47074 2.70101 7.67371C2.53128 8.46623 2.59444 8.9584 2.81802 9.18198C3.04159 9.40556 3.53377 9.46872 4.32629 9.29899ZM5.5 6.29289L7.64645 4.14645L8.35355 4.85355L5.5 7.70711L3.64645 5.85355L4.35355 5.14645L5.5 6.29289Z" fill="#3D5CFF"/>
</g>
<defs>
<clipPath id="clip0_26_2967">
<rect width="12" height="12" fill="white"/>
</clipPath>
</defs>
</svg>
