<svg width="20" height="16" viewBox="0 0 20 16" fill="none" xmlns="http://www.w3.org/2000/svg">
<path d="M19.6 5.36C19.6 5.48 19.6 5.66 19.54 5.78L17.2 12.8V5.6C17.2 4.94 16.66 4.4 16 4.4H12.82L12.52 3.8L11.86 2.36L15.34 3.32L18.58 4.16C19.18 4.28 19.6 4.82 19.6 5.36Z" fill="#FF4131"/>
<path d="M15.4 0.799997V3.26L11.92 2.3L11.74 1.88C11.44 1.28 10.72 0.979997 10.12 1.22L4.59998 3.38V0.799997C4.59998 0.499997 4.89998 0.199997 5.19998 0.199997H14.8C15.1 0.199997 15.4 0.499997 15.4 0.799997Z" fill="#03A846"/>
<path d="M12.82 4.4H4.00002C3.34002 4.4 2.80002 4.94 2.80002 5.6V11.42L0.520024 6.5C0.460024 6.26 0.400024 6.08 0.400024 5.9V5.84C0.400024 5.3 0.700024 4.82 1.24002 4.64L4.60002 3.32L10.06 1.22C10.72 0.979997 11.44 1.28 11.68 1.88L11.86 2.3L12.52 3.74L12.82 4.4Z" fill="#FDBD04"/>
<path d="M17.2 5.59999V14.6C17.2 15.26 16.66 15.8 16 15.8H4.00005C3.34005 15.8 2.80005 15.26 2.80005 14.6V5.59999C2.80005 4.93999 3.34005 4.39999 4.00005 4.39999H16C16.66 4.39999 17.2 4.93999 17.2 5.59999ZM9.40005 9.79999H7.00005V11H7.90005C7.60005 11.36 7.18005 11.6 6.70005 11.6C5.86005 11.6 5.20005 10.94 5.20005 10.1C5.20005 9.25999 5.86005 8.59999 6.70005 8.59999C7.12005 8.59999 7.48005 8.77999 7.78005 9.01999L8.62005 8.17999C8.14005 7.69999 7.48005 7.39999 6.70005 7.39999C5.20005 7.39999 4.00005 8.59999 4.00005 10.1C4.00005 11.6 5.20005 12.8 6.70005 12.8C7.90005 12.8 8.86005 12.08 9.22005 11C9.34005 10.7 9.40005 10.4 9.40005 10.1C9.40005 9.97999 9.40005 9.91999 9.40005 9.79999ZM14.8 7.39999H10.6V8.59999H14.8V7.39999ZM16 9.79999H10.6V11H16V9.79999ZM14.8 12.2H10.6V13.4H14.8V12.2Z" fill="#0284FE"/>
</svg>
