<svg width="16" height="16" viewBox="0 0 16 16" fill="none" xmlns="http://www.w3.org/2000/svg">
<g clip-path="url(#clip0_1036_2610)">
<circle cx="8" cy="8" r="8" fill="white"/>
<g clip-path="url(#clip1_1036_2610)">
<mask id="mask0_1036_2610" style="mask-type:luminance" maskUnits="userSpaceOnUse" x="4" y="3" width="8" height="10">
<path d="M8.1983 12.2088C7.93065 12.2086 7.66355 12.1832 7.40065 12.1329C6.85932 12.0309 6.34349 11.823 5.88284 11.5209C5.42218 11.2189 5.0258 10.8288 4.71649 10.373C4.40568 9.91404 4.18959 9.39769 4.08089 8.85419C3.97219 8.31064 3.97305 7.75089 4.08343 7.20774C4.18524 6.66551 4.39312 6.14872 4.69512 5.68703C4.99713 5.22533 5.38733 4.82781 5.84333 4.51726C6.30228 4.20646 6.81864 3.99037 7.36215 3.88167C7.9057 3.77297 8.46545 3.77383 9.0086 3.88421C9.55105 3.98523 10.0679 4.19348 10.5287 4.49676C10.9896 4.80004 11.3854 5.19225 11.6928 5.65042C11.7569 5.75205 11.7795 5.87442 11.7559 5.99224C11.7324 6.11006 11.6644 6.21432 11.5662 6.28347C11.4641 6.34606 11.3422 6.3678 11.2248 6.34432C11.1074 6.32084 11.0032 6.25389 10.9331 6.15686C10.6951 5.80255 10.3889 5.49916 10.0324 5.2644C9.6759 5.02963 9.2762 4.86819 8.8567 4.78948C8.4385 4.70871 8.0085 4.71131 7.59135 4.79713C7.1742 4.88295 6.77807 5.0503 6.42574 5.28958C6.07122 5.52886 5.76778 5.8362 5.53304 6.19374C5.2983 6.55128 5.13694 6.95189 5.05834 7.37234C4.9758 7.79039 4.97752 8.22079 5.0634 8.63819C5.14927 9.05559 5.31758 9.45169 5.55846 9.80324C5.79702 10.1571 6.10336 10.4601 6.45977 10.6948C6.81618 10.9295 7.2156 11.0912 7.6349 11.1706C8.4815 11.3326 9.3578 11.1528 10.0721 10.6705C10.1742 10.6079 10.2961 10.5862 10.4135 10.6097C10.5309 10.6331 10.6351 10.7001 10.7052 10.7971C10.7678 10.8992 10.7895 11.0211 10.766 11.1385C10.7426 11.2559 10.6756 11.36 10.5786 11.4302C9.8831 11.9263 9.05255 12.1979 8.1983 12.2088Z" fill="white"/>
</mask>
<g mask="url(#mask0_1036_2610)">
<path d="M8.1983 12.2088L8.19765 13.2088H8.20435L8.21105 13.2087L8.1983 12.2088ZM7.40065 12.1329L7.5888 11.1507L7.5857 11.1501L7.40065 12.1329ZM4.71649 10.373L3.8885 10.9337L3.88903 10.9345L4.71649 10.373ZM4.08344 7.20774L5.06341 7.40689L5.06489 7.39959L5.06626 7.39229L4.08344 7.20774ZM5.84334 4.51726L5.2826 3.68926L5.28046 3.69073L5.84334 4.51726ZM9.0086 3.88421L8.8095 4.86418L8.8175 4.86581L8.82555 4.86731L9.0086 3.88421ZM11.6928 5.65042L12.5386 5.11687L12.5311 5.10496L12.5232 5.09328L11.6928 5.65042ZM11.5662 6.28347L12.089 7.13589L12.1159 7.11944L12.1417 7.10129L11.5662 6.28347ZM10.9331 6.15686L10.1031 6.71452L10.1126 6.72874L10.1227 6.74263L10.9331 6.15686ZM8.8567 4.78948L8.66705 5.77134L8.6723 5.77233L8.8567 4.78948ZM6.42575 5.28958L6.98519 6.11846L6.98757 6.11684L6.42575 5.28958ZM5.05834 7.37234L6.03941 7.56599L6.04039 7.56104L6.04131 7.55609L5.05834 7.37234ZM5.55846 9.80324L6.38761 9.24424L6.38552 9.24109L6.3834 9.23799L5.55846 9.80324ZM7.6349 11.1706L7.82285 10.1884L7.8209 10.1881L7.6349 11.1706ZM10.0722 10.6705L9.5493 9.81809L9.5307 9.82949L9.5126 9.84174L10.0722 10.6705ZM10.7052 10.7971L11.5577 10.2743L11.5379 10.242L11.5157 10.2114L10.7052 10.7971ZM10.5786 11.4302L11.1593 12.2443L11.1644 12.2407L10.5786 11.4302ZM8.19895 11.2088C7.9942 11.2087 7.7899 11.1892 7.5888 11.1507L7.2125 13.115C7.53725 13.1772 7.8671 13.2086 8.19765 13.2088L8.19895 11.2088ZM7.5857 11.1501C7.17395 11.0726 6.78156 10.9144 6.43115 10.6847L5.33454 12.3572C5.90544 12.7315 6.54473 12.9893 7.2156 13.1156L7.5857 11.1501ZM6.43115 10.6847C6.08075 10.4549 5.77923 10.1581 5.54395 9.81144L3.88903 10.9345C4.27237 11.4994 4.76363 11.9829 5.33454 12.3572L6.43115 10.6847ZM5.54448 9.81224C5.30829 9.46349 5.14408 9.07109 5.06147 8.65804L3.10031 9.05029C3.23512 9.72429 3.50308 10.3646 3.8885 10.9337L5.54448 9.81224ZM5.06147 8.65804C4.97887 8.24504 4.97952 7.81964 5.06341 7.40689L3.10347 7.00859C2.96658 7.68219 2.96551 8.37629 3.10031 9.05029L5.06147 8.65804ZM5.06626 7.39229C5.14378 6.97944 5.30205 6.58597 5.53199 6.23444L3.85827 5.13961C3.48419 5.71148 3.22672 6.35158 3.10061 7.02319L5.06626 7.39229ZM5.53199 6.23444C5.76193 5.88291 6.05902 5.58025 6.40622 5.3438L5.28046 3.69073C4.71565 4.07537 4.23234 4.56774 3.85827 5.13961L5.53199 6.23444ZM6.40407 5.34526C6.75284 5.10907 7.14525 4.94486 7.5583 4.86225L7.16605 2.90109C6.49205 3.03589 5.85172 3.30384 5.2826 3.68926L6.40407 5.34526ZM7.5583 4.86225C7.9713 4.77964 8.3967 4.7803 8.8095 4.86418L9.20775 2.90424C8.5342 2.76736 7.84005 2.76629 7.16605 2.90109L7.5583 4.86225ZM8.82555 4.86731C9.23715 4.94397 9.6293 5.10199 9.97905 5.33213L11.0785 3.66139C10.5064 3.28496 9.86495 3.02649 9.1917 2.90112L8.82555 4.86731ZM9.97905 5.33213C10.3288 5.56227 10.6291 5.8599 10.8624 6.20757L12.5232 5.09328C12.1417 4.52461 11.6505 4.03781 11.0785 3.66139L9.97905 5.33213ZM10.847 6.18398C10.7743 6.06866 10.7486 5.92981 10.7754 5.79612L12.7365 6.18836C12.8104 5.81903 12.7395 5.43543 12.5386 5.11687L10.847 6.18398ZM10.7754 5.79612C10.8021 5.66242 10.8792 5.54412 10.9907 5.46567L12.1417 7.10129C12.4497 6.88453 12.6627 6.5577 12.7365 6.18836L10.7754 5.79612ZM11.0434 5.43104C11.1562 5.36181 11.2911 5.33777 11.421 5.36374L11.0287 7.32489C11.3934 7.39784 11.7721 7.33034 12.089 7.13589L11.0434 5.43104ZM11.421 5.36374C11.5508 5.38971 11.6661 5.46377 11.7436 5.5711L10.1227 6.74263C10.3405 7.04399 10.6641 7.25199 11.0287 7.32489L11.421 5.36374ZM11.7632 5.59921C11.4512 5.13471 11.0498 4.73699 10.5824 4.42922L9.4824 6.09957C9.72805 6.26133 9.93905 6.47038 10.1031 6.71452L11.7632 5.59921ZM10.5824 4.42922C10.115 4.12146 9.5911 3.90981 9.0411 3.80662L8.6723 5.77233C8.96135 5.82656 9.23675 5.93781 9.4824 6.09957L10.5824 4.42922ZM9.04635 3.80762C8.4989 3.70189 7.93595 3.70529 7.38985 3.81764L7.79285 5.77662C8.08105 5.71733 8.37815 5.71554 8.66705 5.77134L9.04635 3.80762ZM7.38985 3.81764C6.84373 3.92999 6.32517 4.14908 5.86393 4.46233L6.98757 6.11684C7.231 5.95153 7.50465 5.83591 7.79285 5.77662L7.38985 3.81764ZM5.86631 4.46071C5.40198 4.7741 5.00456 5.17663 4.69711 5.64491L6.36898 6.74257C6.53102 6.49577 6.74048 6.28363 6.98519 6.11846L5.86631 4.46071ZM4.69711 5.64491C4.38966 6.11319 4.17833 6.63789 4.07538 7.18854L6.04131 7.55609C6.09557 7.26589 6.20695 6.98936 6.36898 6.74257L4.69711 5.64491ZM4.07728 7.17864C3.96898 7.72724 3.97123 8.29199 4.08392 8.83969L6.04289 8.43669C5.98382 8.14959 5.98264 7.85359 6.03941 7.56599L4.07728 7.17864ZM4.08392 8.83969C4.1966 9.38744 4.41745 9.90714 4.73352 10.3684L6.3834 9.23799C6.21772 8.99619 6.10196 8.72379 6.04289 8.43669L4.08392 8.83969ZM4.72931 10.3622C5.04176 10.8257 5.44299 11.2226 5.90979 11.53L7.00975 9.85964C6.76374 9.69764 6.55228 9.48844 6.38761 9.24424L4.72931 10.3622ZM5.90979 11.53C6.37659 11.8374 6.8997 12.0492 7.44885 12.1532L7.8209 10.1881C7.53145 10.1333 7.25575 10.0216 7.00975 9.85964L5.90979 11.53ZM7.4469 12.1528C8.55315 12.3645 9.69825 12.1296 10.6318 11.4993L9.5126 9.84174C9.0173 10.1761 8.4098 10.3008 7.82285 10.1884L7.4469 12.1528ZM10.595 11.5229C10.4821 11.5922 10.3472 11.6162 10.2174 11.5902L10.6097 9.62909C10.245 9.55619 9.8663 9.62369 9.5493 9.81809L10.595 11.5229ZM10.2174 11.5902C10.0876 11.5643 9.9723 11.4902 9.89475 11.3829L11.5157 10.2114C11.2979 9.90999 10.9743 9.70204 10.6097 9.62909L10.2174 11.5902ZM9.8528 11.32C9.78355 11.2071 9.7595 11.0722 9.7855 10.9424L11.7467 11.3346C11.8196 10.97 11.7521 10.5912 11.5577 10.2743L9.8528 11.32ZM9.7855 10.9424C9.81145 10.8125 9.8855 10.6972 9.99285 10.6197L11.1644 12.2407C11.4658 12.0228 11.6737 11.6992 11.7467 11.3346L9.7855 10.9424ZM9.9979 10.616C9.46835 10.9938 8.836 11.2006 8.1856 11.2089L8.21105 13.2087C9.2691 13.1953 10.2978 12.8588 11.1593 12.2443L9.9979 10.616Z" fill="#211B2E"/>
</g>
<path d="M7.54644 13.3859C7.49944 13.658 7.68194 13.9167 7.95404 13.9637C8.22619 14.0107 8.48484 13.8282 8.53184 13.556L7.54644 13.3859ZM7.88684 11.415L7.54644 13.3859L8.53184 13.556L8.87224 11.5852L7.88684 11.415Z" fill="#211B2E"/>
<path d="M8.83264 2.58518C8.87964 2.31306 8.69714 2.05437 8.42504 2.00738C8.15289 1.96038 7.89424 2.14287 7.84724 2.41498L8.83264 2.58518ZM8.49224 4.556L8.83264 2.58518L7.84724 2.41498L7.50684 4.3858L8.49224 4.556Z" fill="#211B2E"/>
<path d="M6.00738 12.8859C5.96038 13.158 6.14287 13.4167 6.41499 13.4637C6.6871 13.5107 6.94579 13.3282 6.99279 13.056L6.00738 12.8859ZM6.34776 10.915L6.00738 12.8859L6.99279 13.056L7.33319 11.0852L6.34776 10.915Z" fill="#211B2E"/>
<path d="M10.3707 3.09157C10.4212 2.82009 10.2421 2.55905 9.97065 2.50853C9.69915 2.45801 9.4381 2.63712 9.3876 2.90861L10.3707 3.09157ZM10.0915 4.59181L10.3707 3.09157L9.3876 2.90861L9.1084 4.40884L10.0915 4.59181Z" fill="#211B2E"/>
</g>
</g>
<defs>
<clipPath id="clip0_1036_2610">
<rect width="16" height="16" fill="white"/>
</clipPath>
<clipPath id="clip1_1036_2610">
<rect width="12" height="12" fill="white" transform="translate(2 2)"/>
</clipPath>
</defs>
</svg>
