<svg width="60" height="40" viewBox="0 0 60 40" fill="none" xmlns="http://www.w3.org/2000/svg">
<g clip-path="url(#clip0_3400_88)">
<path d="M39.9682 19.4168C34.4669 16.6264 29.1994 14.0611 23.8149 11.3828V27.4053C29.481 24.4818 35.4532 21.8045 39.9916 19.4168H39.9682Z" fill="white"/>
<path d="M39.9682 19.4168C34.4669 16.6264 23.8149 11.3828 23.8149 11.3828L38.0168 20.4427C38.0168 20.4427 35.4298 21.8045 39.9682 19.4168Z" fill="#E8E0E0"/>
<path d="M24.8502 39.9457C13.4235 39.746 9.52071 39.5664 7.12182 39.0973C5.49881 38.7857 4.08842 38.0936 3.05429 37.0899C2.25503 36.3303 1.61941 35.1712 1.12627 33.5632C0.703266 32.2235 0.538516 31.1088 0.303637 28.3861C-0.0559183 22.2413 -0.141633 17.2174 0.303637 11.604C0.670983 8.50411 0.849091 4.82417 3.28917 2.67728C4.4413 1.67251 5.78156 1.0259 7.28657 0.758598C9.63759 0.334924 19.6539 0 30.0231 0C40.3689 0 50.4075 0.334924 52.7608 0.758598C54.6409 1.09352 56.4042 2.09723 57.4394 3.3915C59.6658 6.71538 59.7048 10.8486 59.9307 14.0816C60.0242 15.622 60.0242 24.3691 59.9307 25.9096C59.579 31.019 59.2962 32.8268 58.497 34.7011C58.0027 35.8844 57.5808 36.5088 56.8506 37.2008C55.7053 38.2658 54.2453 38.9742 52.6651 39.2315C42.7767 39.9373 34.3801 40.0905 24.8502 39.9457ZM39.9927 19.415C34.4914 16.6247 29.2239 14.0372 23.8394 11.3589V27.3824C29.5055 24.4589 35.4788 21.7806 40.0161 19.3928L39.9927 19.415Z" fill="#CD201F"/>
</g>
<defs>
<clipPath id="clip0_3400_88">
<rect width="60" height="40" fill="white"/>
</clipPath>
</defs>
</svg>
