<svg width="16" height="16" viewBox="0 0 16 16" fill="none" xmlns="http://www.w3.org/2000/svg">
<g clip-path="url(#clip0_26_2930)">
<path fill-rule="evenodd" clip-rule="evenodd" d="M2.81455 13.1854C2.19841 12.5693 2.02165 11.6294 2.21487 10.3963C1.20625 9.66091 0.666668 8.87135 0.666668 7.99999C0.666668 7.12863 1.20625 6.33907 2.21487 5.60371C2.02165 4.37053 2.19841 3.43068 2.81455 2.81454C3.43069 2.1984 4.37054 2.02163 5.60372 2.21486C6.33908 1.20624 7.12865 0.666656 8 0.666656C8.87136 0.666656 9.66092 1.20624 10.3963 2.21486C11.6295 2.02163 12.5693 2.1984 13.1855 2.81454C13.8016 3.43068 13.9784 4.37053 13.7851 5.60371C14.7938 6.33907 15.3333 7.12863 15.3333 7.99999C15.3333 8.87135 14.7938 9.66091 13.7851 10.3963C13.9784 11.6294 13.8016 12.5693 13.1855 13.1854C12.5693 13.8016 11.6295 13.9783 10.3963 13.7851C9.66092 14.7937 8.87136 15.3333 8 15.3333C7.12865 15.3333 6.33908 14.7937 5.60372 13.7851C4.37054 13.9783 3.43069 13.8016 2.81455 13.1854ZM5.76839 12.3986C6.03901 12.3407 6.31729 12.456 6.46767 12.6883C7.05484 13.5955 7.57842 14 8 14C8.42158 14 8.94516 13.5955 9.53233 12.6883C9.68271 12.456 9.96099 12.3407 10.2316 12.3986C11.2883 12.6249 11.9445 12.5407 12.2426 12.2426C12.5407 11.9445 12.625 11.2883 12.3987 10.2316C12.3407 9.96098 12.456 9.6827 12.6883 9.53232C13.5955 8.94515 14 8.42157 14 7.99999C14 7.57841 13.5955 7.05483 12.6883 6.46766C12.456 6.31728 12.3407 6.039 12.3987 5.76838C12.625 4.71169 12.5407 4.05545 12.2426 3.75735C11.9445 3.45925 11.2883 3.37503 10.2316 3.60133C9.96099 3.65929 9.68271 3.54402 9.53233 3.31168C8.94516 2.40447 8.42158 1.99999 8 1.99999C7.57842 1.99999 7.05484 2.40447 6.46767 3.31168C6.31729 3.54402 6.03901 3.65929 5.76839 3.60133C4.7117 3.37503 4.05546 3.45925 3.75736 3.75735C3.45926 4.05545 3.37504 4.71169 3.60134 5.76838C3.6593 6.039 3.54403 6.31728 3.31169 6.46766C2.40448 7.05483 2 7.57841 2 7.99999C2 8.42157 2.40448 8.94515 3.31169 9.53232C3.54403 9.6827 3.6593 9.96098 3.60134 10.2316C3.37504 11.2883 3.45926 11.9445 3.75736 12.2426C4.05546 12.5407 4.7117 12.6249 5.76839 12.3986ZM7.33333 8.39051L10.1953 5.52859L11.1381 6.47139L7.33333 10.2761L4.86193 7.80473L5.80474 6.86192L7.33333 8.39051Z" fill="#86AFFF"/>
</g>
<defs>
<clipPath id="clip0_26_2930">
<rect width="16" height="16" fill="white"/>
</clipPath>
</defs>
</svg>
